<svg xmlns="http://www.w3.org/2000/svg" viewBox="0 0 1180 880" font-family="Helvetica, Arial, sans-serif">
  <defs>
    <marker id="arrow" viewBox="0 0 10 10" refX="9" refY="5" markerWidth="7" markerHeight="7" orient="auto-start-reverse">
      <path d="M 0 0 L 10 5 L 0 10 z" fill="#5f6368"/>
    </marker>
  </defs>

  <rect x="0" y="0" width="1180" height="880" fill="#ffffff"/>
  <text x="40" y="48" font-size="26" font-weight="700" fill="#202124">Egress &#8212; System Architecture</text>
  <text x="40" y="74" font-size="14" fill="#5f6368">Track 1 (Build). Gemini via Vertex AI, ADK orchestration, MCP tools. Cloud Run and Agent Engine are the deploy targets.</text>

  <!-- Legend -->
  <g font-size="12" fill="#3c4043">
    <rect x="820" y="26" width="14" height="14" rx="3" fill="#E8F0FE" stroke="#4285F4"/>
    <text x="840" y="38">Gemini / LLM agent</text>
    <rect x="820" y="46" width="14" height="14" rx="3" fill="#E6F4EA" stroke="#34A853"/>
    <text x="840" y="58">Deterministic (no LLM)</text>
    <rect x="820" y="66" width="14" height="14" rx="3" fill="#F3E8FD" stroke="#A142F4"/>
    <text x="840" y="78">MCP tool server</text>
    <rect x="990" y="26" width="14" height="14" rx="3" fill="#FEF7E0" stroke="#F9AB00"/>
    <text x="1010" y="38">Data store</text>
    <rect x="990" y="46" width="14" height="14" rx="3" fill="#F1F3F4" stroke="#9aa0a6" stroke-dasharray="4 3"/>
    <text x="1010" y="58">Fallback / optional path</text>
  </g>

  <!-- User -->
  <rect x="500" y="100" width="180" height="44" rx="10" fill="#F1F3F4" stroke="#9aa0a6"/>
  <text x="590" y="127" font-size="15" font-weight="600" text-anchor="middle" fill="#202124">User</text>

  <!-- Frontend -->
  <rect x="470" y="176" width="240" height="56" rx="10" fill="#F1F3F4" stroke="#5f6368"/>
  <text x="590" y="200" font-size="14" font-weight="600" text-anchor="middle" fill="#202124">Frontend</text>
  <text x="590" y="219" font-size="12" text-anchor="middle" fill="#5f6368">Next.js + shadcn/ui &#183; Cloud Run</text>

  <!-- Gateway -->
  <rect x="470" y="264" width="240" height="56" rx="10" fill="#F1F3F4" stroke="#5f6368"/>
  <text x="590" y="288" font-size="14" font-weight="600" text-anchor="middle" fill="#202124">Gateway / BFF</text>
  <text x="590" y="307" font-size="12" text-anchor="middle" fill="#5f6368">FastAPI &#183; WebSocket hub &#183; Cloud Run</text>

  <!-- Agents container (shipped; solid stroke) -->
  <rect x="60" y="356" width="700" height="196" rx="14" fill="#F8FBFF" stroke="#4285F4" stroke-width="1.6"/>
  <text x="80" y="380" font-size="13" font-weight="700" fill="#1a73e8">ADK agents &#8212; Gemini via Vertex AI &#183; Agent Engine deployed, local ADK Runner fallback</text>

  <!-- Orchestrator -->
  <rect x="84" y="396" width="180" height="46" rx="9" fill="#E8F0FE" stroke="#4285F4"/>
  <text x="174" y="416" font-size="13" font-weight="600" text-anchor="middle" fill="#174ea6">Orchestrator</text>
  <text x="174" y="432" font-size="11" text-anchor="middle" fill="#3c4043">SequentialAgent</text>

  <!-- Scenario Author -->
  <rect x="84" y="456" width="180" height="46" rx="9" fill="#E8F0FE" stroke="#4285F4"/>
  <text x="174" y="476" font-size="13" font-weight="600" text-anchor="middle" fill="#174ea6">Scenario Author</text>
  <text x="174" y="492" font-size="11" text-anchor="middle" fill="#3c4043">parse + validate</text>

  <!-- Archetypes -->
  <rect x="288" y="396" width="186" height="106" rx="9" fill="#E8F0FE" stroke="#4285F4"/>
  <text x="381" y="416" font-size="13" font-weight="600" text-anchor="middle" fill="#174ea6">Archetype Agents</text>
  <text x="381" y="433" font-size="11" text-anchor="middle" fill="#3c4043">ParallelAgent &#183; 6 mood-setters</text>
  <text x="381" y="455" font-size="10" text-anchor="middle" fill="#5f6368">forced &#183; panic &#183; trend</text>
  <text x="381" y="469" font-size="10" text-anchor="middle" fill="#5f6368">bargain &#183; maker &#183; holder</text>
  <text x="381" y="490" font-size="10" text-anchor="middle" fill="#5f6368">set the mood per type</text>

  <!-- Analyst -->
  <rect x="498" y="396" width="238" height="46" rx="9" fill="#E8F0FE" stroke="#4285F4"/>
  <text x="617" y="416" font-size="13" font-weight="600" text-anchor="middle" fill="#174ea6">Analyst</text>
  <text x="617" y="432" font-size="11" text-anchor="middle" fill="#3c4043">explains the run (reads the sim log)</text>

  <!-- Critic -->
  <rect x="498" y="456" width="238" height="46" rx="9" fill="#E8F0FE" stroke="#4285F4"/>
  <text x="617" y="476" font-size="13" font-weight="600" text-anchor="middle" fill="#174ea6">Calibration Critic</text>
  <text x="617" y="492" font-size="11" text-anchor="middle" fill="#3c4043">judge/backtest vs real episode</text>

  <!-- Simulation engine container (shipped; solid stroke) -->
  <rect x="60" y="584" width="700" height="150" rx="14" fill="#F4FBF6" stroke="#34A853" stroke-width="1.6"/>
  <text x="80" y="608" font-size="13" font-weight="700" fill="#188038">Simulation Engine &#8212; deterministic, no LLM &#183; Cloud Run</text>

  <rect x="84" y="626" width="120" height="86" rx="9" fill="#E6F4EA" stroke="#34A853"/>
  <text x="144" y="664" font-size="12" font-weight="600" text-anchor="middle" fill="#0d652d">Order book</text>
  <text x="144" y="681" font-size="10" text-anchor="middle" fill="#3c4043">matching engine</text>

  <rect x="216" y="626" width="120" height="86" rx="9" fill="#E6F4EA" stroke="#34A853"/>
  <text x="276" y="660" font-size="12" font-weight="600" text-anchor="middle" fill="#0d652d">Population</text>
  <text x="276" y="677" font-size="10" text-anchor="middle" fill="#3c4043">thousands of</text>
  <text x="276" y="690" font-size="10" text-anchor="middle" fill="#3c4043">vectorized agents</text>

  <rect x="348" y="626" width="120" height="86" rx="9" fill="#E6F4EA" stroke="#34A853"/>
  <text x="408" y="664" font-size="12" font-weight="600" text-anchor="middle" fill="#0d652d">Stats / Markov</text>
  <text x="408" y="681" font-size="10" text-anchor="middle" fill="#3c4043">fit to real data</text>

  <rect x="480" y="626" width="120" height="86" rx="9" fill="#E6F4EA" stroke="#34A853"/>
  <text x="540" y="664" font-size="12" font-weight="600" text-anchor="middle" fill="#0d652d">Metrics</text>
  <text x="540" y="681" font-size="10" text-anchor="middle" fill="#3c4043">fill &#183; slippage &#183; stuck</text>

  <rect x="612" y="626" width="120" height="86" rx="9" fill="#E6F4EA" stroke="#34A853"/>
  <text x="672" y="664" font-size="12" font-weight="600" text-anchor="middle" fill="#0d652d">Replay</text>
  <text x="672" y="681" font-size="10" text-anchor="middle" fill="#3c4043">NDJSON record</text>

  <!-- MCP servers -->
  <rect x="820" y="356" width="320" height="60" rx="10" fill="#F3E8FD" stroke="#A142F4"/>
  <text x="980" y="380" font-size="13" font-weight="600" text-anchor="middle" fill="#7627bb">Market Data MCP</text>
  <text x="980" y="399" font-size="11" text-anchor="middle" fill="#3c4043">Alpha Vantage daily &#183; ADV &#183; halt tier &#183; liquidity</text>

  <rect x="820" y="430" width="320" height="60" rx="10" fill="#F3E8FD" stroke="#A142F4"/>
  <text x="980" y="454" font-size="13" font-weight="600" text-anchor="middle" fill="#7627bb">News + Positioning MCP</text>
  <text x="980" y="473" font-size="11" text-anchor="middle" fill="#3c4043">news sentiment &#183; peer-crowding evidence</text>

  <!-- Vertex AI -->
  <rect x="820" y="514" width="320" height="74" rx="10" fill="#F8FBFF" stroke="#4285F4"/>
  <text x="980" y="536" font-size="13" font-weight="700" text-anchor="middle" fill="#1a73e8">Vertex AI</text>
  <text x="980" y="556" font-size="12" text-anchor="middle" fill="#3c4043">Gemini models</text>
  <text x="980" y="574" font-size="12" text-anchor="middle" fill="#80868b">Vertex AI Search adapter (RAG)</text>

  <!-- Memory -->
  <rect x="820" y="602" width="320" height="64" rx="10" fill="#F8FBFF" stroke="#4285F4"/>
  <text x="980" y="624" font-size="13" font-weight="700" text-anchor="middle" fill="#1a73e8">ADK MemoryService</text>
  <text x="980" y="643" font-size="11" text-anchor="middle" fill="#3c4043">Vertex AI Memory Bank</text>
  <text x="980" y="658" font-size="10" text-anchor="middle" fill="#5f6368">JSONL / Cloud SQL fallback</text>

  <!-- Data layer -->
  <rect x="820" y="680" width="155" height="74" rx="10" fill="#FEF7E0" stroke="#F9AB00"/>
  <text x="897" y="708" font-size="12" font-weight="600" text-anchor="middle" fill="#a05a00">Postgres</text>
  <text x="897" y="725" font-size="10" text-anchor="middle" fill="#3c4043">MCP response cache</text>
  <text x="897" y="742" font-size="10" text-anchor="middle" fill="#3c4043">(Alpha Vantage)</text>

  <rect x="985" y="680" width="155" height="74" rx="10" fill="#F1F3F4" stroke="#9aa0a6" stroke-dasharray="5 3"/>
  <text x="1062" y="708" font-size="12" font-weight="600" text-anchor="middle" fill="#5f6368">Redis</text>
  <text x="1062" y="729" font-size="10" text-anchor="middle" fill="#80868b">deployed engine state</text>

  <!-- Arrows -->
  <g stroke="#5f6368" stroke-width="1.8" fill="none">
    <line x1="590" y1="144" x2="590" y2="174" marker-end="url(#arrow)"/>
    <line x1="590" y1="232" x2="590" y2="262" marker-end="url(#arrow)"/>
    <line x1="590" y1="320" x2="590" y2="354" marker-end="url(#arrow)"/>
    <line x1="410" y1="552" x2="410" y2="582" marker-end="url(#arrow)"/>
  </g>

  <!-- Orchestrator to agents (internal) -->
  <g stroke="#8ab4f8" stroke-width="1.5" fill="none">
    <line x1="264" y1="419" x2="286" y2="430" marker-end="url(#arrow)"/>
    <line x1="174" y1="442" x2="174" y2="454" marker-end="url(#arrow)"/>
    <line x1="474" y1="419" x2="496" y2="419" marker-end="url(#arrow)"/>
  </g>

  <!-- Agents to MCP / Vertex -->
  <g stroke="#a142f4" stroke-width="1.5" fill="none" stroke-dasharray="5 3">
    <line x1="474" y1="430" x2="818" y2="400" marker-end="url(#arrow)"/>
    <line x1="264" y1="478" x2="818" y2="450" marker-end="url(#arrow)"/>
  </g>
  <g stroke="#4285F4" stroke-width="1.5" fill="none" stroke-dasharray="5 3">
    <line x1="736" y1="470" x2="818" y2="540" marker-end="url(#arrow)"/>
  </g>

  <!-- Engine to data -->
  <g stroke="#f9ab00" stroke-width="1.6" fill="none">
    <line x1="732" y1="669" x2="818" y2="700" marker-end="url(#arrow)"/>
  </g>

  <!-- labels on key edges -->
  <g font-size="11" fill="#5f6368">
    <text x="600" y="166">WebSocket</text>
    <text x="600" y="344">Agent Engine / local fallback</text>
    <text x="300" y="572">advance ticks (tool call)</text>
    <text x="640" y="406" fill="#a142f4">MCP</text>
  </g>
</svg>
