<svg xmlns="http://www.w3.org/2000/svg" viewBox="0 0 1180 720" font-family="Helvetica, Arial, sans-serif">
  <defs>
    <marker id="arrow2" viewBox="0 0 10 10" refX="9" refY="5" markerWidth="7" markerHeight="7" orient="auto-start-reverse">
      <path d="M 0 0 L 10 5 L 0 10 z" fill="#5f6368"/>
    </marker>
  </defs>

  <rect x="0" y="0" width="1180" height="720" fill="#ffffff"/>
  <text x="40" y="48" font-size="26" font-weight="700" fill="#202124">Egress &#8212; How a Single Run Works</text>
  <text x="40" y="74" font-size="14" fill="#5f6368">Plain-language scenario in, simulated exit out. Gemini sets assumptions; a deterministic engine runs the market.</text>

  <!-- Legend -->
  <g font-size="12" fill="#3c4043">
    <rect x="820" y="34" width="14" height="14" rx="3" fill="#E8F0FE" stroke="#4285F4"/>
    <text x="840" y="46">Gemini step</text>
    <rect x="930" y="34" width="14" height="14" rx="3" fill="#E6F4EA" stroke="#34A853"/>
    <text x="950" y="46">Deterministic step</text>
    <rect x="1070" y="34" width="14" height="14" rx="3" fill="#F1F3F4" stroke="#9aa0a6" stroke-dasharray="4 3"/>
    <text x="1090" y="46">Fallback / optional</text>
  </g>

  <!-- Step 1: scenario input -->
  <rect x="40" y="120" width="210" height="70" rx="10" fill="#F1F3F4" stroke="#9aa0a6"/>
  <text x="145" y="150" font-size="14" font-weight="600" text-anchor="middle" fill="#202124">Scenario in</text>
  <text x="145" y="170" font-size="11" text-anchor="middle" fill="#5f6368">position + stress event,</text>
  <text x="145" y="184" font-size="11" text-anchor="middle" fill="#5f6368">in plain language</text>

  <!-- Step 2: scenario author -->
  <rect x="300" y="120" width="210" height="70" rx="10" fill="#E8F0FE" stroke="#4285F4"/>
  <text x="405" y="148" font-size="13" font-weight="600" text-anchor="middle" fill="#174ea6">Scenario Author</text>
  <text x="405" y="167" font-size="11" text-anchor="middle" fill="#3c4043">Gemini assumptions + validate</text>
  <text x="405" y="182" font-size="10" text-anchor="middle" fill="#5f6368">grounds on MCP data</text>

  <!-- Step 3: setup -->
  <rect x="560" y="120" width="210" height="70" rx="10" fill="#E6F4EA" stroke="#34A853"/>
  <text x="665" y="148" font-size="13" font-weight="600" text-anchor="middle" fill="#0d652d">Setup</text>
  <text x="665" y="167" font-size="11" text-anchor="middle" fill="#3c4043">build the population</text>
  <text x="665" y="182" font-size="10" text-anchor="middle" fill="#5f6368">with peer-crowding evidence</text>

  <!-- Loop container (shipped; solid stroke so it is not read as optional) -->
  <rect x="120" y="250" width="700" height="190" rx="14" fill="#FBFBFB" stroke="#5f6368" stroke-width="1.6"/>
  <text x="140" y="276" font-size="13" font-weight="700" fill="#3c4043">Simulate loop &#8212; deterministic ensemble; detailed mode can refresh stances</text>

  <!-- mood setters -->
  <rect x="150" y="296" width="280" height="118" rx="10" fill="#E8F0FE" stroke="#4285F4"/>
  <text x="290" y="322" font-size="13" font-weight="600" text-anchor="middle" fill="#174ea6">Assumptions / detailed stances</text>
  <text x="290" y="341" font-size="11" text-anchor="middle" fill="#3c4043">Gemini via Agent Engine</text>
  <text x="290" y="360" font-size="11" text-anchor="middle" fill="#5f6368">default: one upfront scenario read</text>
  <text x="290" y="374" font-size="11" text-anchor="middle" fill="#5f6368">detailed: ParallelAgent stances</text>
  <text x="290" y="397" font-size="10" text-anchor="middle" fill="#5f6368">never per-agent or per-tick</text>

  <!-- engine advance -->
  <rect x="510" y="296" width="280" height="118" rx="10" fill="#E6F4EA" stroke="#34A853"/>
  <text x="650" y="322" font-size="13" font-weight="600" text-anchor="middle" fill="#0d652d">Engine advances scenarios</text>
  <text x="650" y="341" font-size="11" text-anchor="middle" fill="#3c4043">deterministic, no LLM</text>
  <text x="650" y="360" font-size="11" text-anchor="middle" fill="#5f6368">thousands of agents place orders,</text>
  <text x="650" y="374" font-size="11" text-anchor="middle" fill="#5f6368">order book matches, price moves,</text>
  <text x="650" y="397" font-size="10" text-anchor="middle" fill="#5f6368">halt rule enforced</text>

  <!-- loop arrows between mood and engine -->
  <g stroke="#5f6368" stroke-width="1.8" fill="none">
    <line x1="430" y1="340" x2="508" y2="340" marker-end="url(#arrow2)"/>
    <line x1="508" y1="378" x2="430" y2="378" marker-end="url(#arrow2)"/>
  </g>
  <text x="470" y="332" font-size="10" text-anchor="middle" fill="#5f6368">assumptions</text>
  <text x="470" y="394" font-size="10" text-anchor="middle" fill="#5f6368">new state</text>

  <!-- metrics -->
  <rect x="120" y="490" width="200" height="64" rx="10" fill="#E6F4EA" stroke="#34A853"/>
  <text x="220" y="518" font-size="13" font-weight="600" text-anchor="middle" fill="#0d652d">Metrics</text>
  <text x="220" y="537" font-size="10" text-anchor="middle" fill="#5f6368">fill &#183; slippage &#183; stuck &#183; halt</text>

  <!-- analyst -->
  <rect x="360" y="490" width="200" height="64" rx="10" fill="#E8F0FE" stroke="#4285F4"/>
  <text x="460" y="514" font-size="13" font-weight="600" text-anchor="middle" fill="#174ea6">Analyst explains</text>
  <text x="460" y="533" font-size="10" text-anchor="middle" fill="#5f6368">plain-language, from the sim log</text>

  <!-- critic -->
  <rect x="600" y="490" width="200" height="64" rx="10" fill="#E8F0FE" stroke="#4285F4"/>
  <text x="700" y="514" font-size="13" font-weight="600" text-anchor="middle" fill="#174ea6">Calibration Critic</text>
  <text x="700" y="533" font-size="10" text-anchor="middle" fill="#5f6368">eval/backtest vs real episode</text>

  <!-- result -->
  <rect x="850" y="490" width="290" height="64" rx="10" fill="#F1F3F4" stroke="#9aa0a6"/>
  <text x="995" y="514" font-size="14" font-weight="600" text-anchor="middle" fill="#202124">Result</text>
  <text x="995" y="533" font-size="10" text-anchor="middle" fill="#5f6368">can the position be sold, how far price falls, how much stuck</text>

  <!-- vary and re-run -->
  <rect x="850" y="600" width="290" height="58" rx="10" fill="#FEF7E0" stroke="#F9AB00"/>
  <text x="995" y="625" font-size="13" font-weight="600" text-anchor="middle" fill="#a05a00">Vary and re-run</text>
  <text x="995" y="643" font-size="10" text-anchor="middle" fill="#5f6368">change size, exit speed, crowding mix</text>

  <!-- Memory -->
  <rect x="360" y="600" width="440" height="58" rx="10" fill="#E8F0FE" stroke="#4285F4"/>
  <text x="580" y="623" font-size="13" font-weight="600" text-anchor="middle" fill="#174ea6">ADK MemoryService &#8212; Vertex AI Memory Bank</text>
  <text x="580" y="641" font-size="10" text-anchor="middle" fill="#5f6368">scenario history + calibration records; JSONL/Cloud SQL fallback</text>

  <!-- memory edges -->
  <g stroke="#9aa0a6" stroke-width="1.5" fill="none" stroke-dasharray="5 3">
    <line x1="460" y1="554" x2="500" y2="598" marker-end="url(#arrow2)"/>
    <line x1="700" y1="554" x2="660" y2="598" marker-end="url(#arrow2)"/>
  </g>
  <text x="525" y="585" font-size="10" fill="#80868b">read / write</text>

  <!-- Top row arrows -->
  <g stroke="#5f6368" stroke-width="1.8" fill="none">
    <line x1="250" y1="155" x2="298" y2="155" marker-end="url(#arrow2)"/>
    <line x1="510" y1="155" x2="558" y2="155" marker-end="url(#arrow2)"/>
    <line x1="665" y1="190" x2="665" y2="248" marker-end="url(#arrow2)"/>
    <line x1="470" y1="440" x2="320" y2="488" marker-end="url(#arrow2)"/>
    <line x1="320" y1="522" x2="358" y2="522" marker-end="url(#arrow2)"/>
    <line x1="560" y1="522" x2="598" y2="522" marker-end="url(#arrow2)"/>
    <line x1="800" y1="522" x2="848" y2="522" marker-end="url(#arrow2)"/>
  </g>

  <!-- re-run loop arrow -->
  <g stroke="#f9ab00" stroke-width="1.8" fill="none" stroke-dasharray="6 4">
    <path d="M 995 660 C 700 702, 120 706, 45 470 C 25 330 70 235 128 198" marker-end="url(#arrow2)"/>
  </g>
  <text x="150" y="700" font-size="11" fill="#a05a00">re-run with new levers</text>
</svg>
